# xmcd CD database file
#
# Track frame offsets:
#	150
#	12706
#	30005
#	40871
#	55772
#	68104
#	82027
#	94290
#	117178
#	132857
#	158111
#	176408
#	190356
#	203446
#
# Disc length: 2930 seconds
#
# Revision: 0
# Processed by: cddbd v1.5.2PL0 Copyright (c) Steve Scherf et al.
# Submitted via: CDex 1.70beta2
#
DISCID=b10b700e
DTITLE=Sunny Bottom Boys - Keep on the sunny side
DYEAR=2007
DGENRE=Country
TTITLE0=The bramble and the rose
TTITLE1=My blackbirds are bluebirds now
TTITLE2=Dont laugh
TTITLE3=Blue river valley
TTITLE4=Mercury Song
TTITLE5=Last night
TTITLE6=Longhorn
TTITLE7=Northern Rail
TTITLE8=You aint goin nowhere
TTITLE9=Ghostriders in the sky
TTITLE10=My little son
TTITLE11=87 Southbound
TTITLE12=Whos sorry now
TTITLE13=Keep on the sunny side
EXTD=YEAR: 2007
EXTT0=
EXTT1=
EXTT2=
EXTT3=
EXTT4=
EXTT5=
EXTT6=
EXTT7=
EXTT8=
EXTT9=
EXTT10=
EXTT11=
EXTT12=
EXTT13=
PLAYORDER=
